name Run_500 02_newCOP3_v24.mot
datacolumns 19
datarows 125
range 1.387 1.511
DataType=double
version=3
OpenSimVersion=4.3-2021-08-27-4bc7ad9
endheader
time	R_ground_force_vx	R_ground_force_vy	R_ground_force_vz	R_ground_force_px	R_ground_force_py	R_ground_force_pz	L_ground_force_vx	L_ground_force_vy	L_ground_force_vz	L_ground_force_px	L_ground_force_py	L_ground_force_pz	R_ground_torque_x	R_ground_torque_y	R_ground_torque_z	L_ground_torque_x	L_ground_torque_y	L_ground_torque_z
1.387	0	0	0	0	0	0	0	0	0	0	0	0	0	0	0	0	0	0
1.388	0	0	0	0	0	0	0	0	0	0	0	0	0	0	0	0	0	0
1.389	0	0	0	0	0	0	0	0	0	0	0	0	0	0	0	0	0	0
1.39	0	0	0	0	0	0	0	0	0	0	0	0	0	0	0	0	0	0
1.391	0	0	0	0	0	0	0	0	0	0	0	0	0	0	0	0	0	0
1.392	0	0	0	0	0	0	0	0	0	0	0	0	0	0	0	0	0	0
1.393	0	0	0	0	0	0	0	0	0	0	0	0	0	0	0	0	0	0
1.394	0	0	0	0	0	0	0	0	0	0	0	0	0	0	0	0	0	0
1.395	0	0	0	0	0	0	0	0	0	0	0	0	0	0	0	0	0	0
1.396	0	0	0	0	0	0	0	0	0	0	0	0	0	0	0	0	0	0
1.397	0	0	0	0	0	0	0	0	0	0	0	0	0	0	0	0	0	0
1.398	0	0	0	0	0	0	0	0	0	0	0	0	0	0	0	0	0	0
1.399	0	0	0	0	0	0	0	0	0	0	0	0	0	0	0	0	0	0
1.4	0	0	0	0	0	0	0	0	0	0	0	0	0	0	0	0	0	0
1.401	0	0	0	0	0	0	0	0	0	0	0	0	0	0	0	0	0	0
1.402	0	0	0	0	0	0	0	0	0	0	0	0	0	0	0	0	0	0
1.403	0	0	0	0	0	0	0	0	0	0	0	0	0	0	0	0	0	0
1.404	0	0	0	0	0	0	0	0	0	0	0	0	0	0	0	0	0	0
1.405	0	0	0	0	0	0	0	0	0	0	0	0	0	0	0	0	0	0
1.406	0	0	0	0	0	0	0	0	0	0	0	0	0	0	0	0	0	0
1.407	0	0	0	0	0	0	0	0	0	0	0	0	0	0	0	0	0	0
1.408	0	0	0	0	0	0	0	0	0	0	0	0	0	0	0	0	0	0
1.409	0	0	0	0	0	0	0	0	0	0	0	0	0	0	0	0	0	0
1.41	0	0	0	0	0	0	0	0	0	0	0	0	0	0	0	0	0	0
1.411	0	0	0	0	0	0	0	0	0	0	0	0	0	0	0	0	0	0
1.412	0	0	0	0	0	0	0	0	0	0	0	0	0	0	0	0	0	0
1.413	0	0	0	0	0	0	0	0	0	0	0	0	0	0	0	0	0	0
1.414	0	0	0	0	0	0	0	0	0	0	0	0	0	0	0	0	0	0
1.415	0	0	0	0	0	0	0	0	0	0	0	0	0	0	0	0	0	0
1.416	0	0	0	0	0	0	0	0	0	0	0	0	0	0	0	0	0	0
1.417	0	0	0	0	0	0	0	0	0	0	0	0	0	0	0	0	0	0
1.418	-3.053051	10.561441	-0.967742	0	0	0	0	0	0	0	0	0	0	0	0	0	0	0
1.419	-2.636071	11.941261	-0.894613	0	0	0	0	0	0	0	0	0	0	0	0	0	0	0
1.42	-2.214233	13.568795	-0.858984	0	0	0	0	0	0	0	0	0	0	0	0	0	0	0
1.421	-1.793511	15.480795	-0.869907	0	0	0	0	0	0	0	0	0	0	0	0	0	0	0
1.422	-1.379597	17.720093	-0.9363899999999999	0	0	0	0	0	0	0	0	0	0	0	0	0	0	0
1.423	-0.977845	20.336267	-1.067348	0	0	0	0	0	0	0	0	0	0	0	0	0	0	0
1.424	-0.59321	23.386267	-1.271552	0	0	0	0	0	0	0	0	0	0	0	0	0	0	0
1.425	-0.230196	26.934992	-1.55758	0	0	0	0	0	0	0	0	0	0	0	0	0	0	0
1.426	0.107195	31.055786	-1.933749	1.114288	0	-0.310442	0	0	0	0	0	0	-0	1.429636	-0	0	0	0
1.427	0.4155	35.830833	-2.408033	1.117343	0	-0.312161	0	0	0	0	0	0	-0	1.184978	-0	0	0	0
1.428	0.691823	41.351418	-2.98795	1.1228	0	-0.314765	0	0	0	0	0	0	-0	0.914875	-0	0	0	0
1.429	0.933843	47.717995	-3.680419	1.132759	0	-0.319072	0	0	0	0	0	0	-0	0.625915	-0	0	0	0
1.43	1.139781	55.040089	-4.491578	1.153175	0	-0.327391	0	0	0	0	0	0	-0	0.324997	-0	0	0	0
1.431	1.308328	63.435913	-5.42655	1.20998	0	-0.349771	0	0	0	0	0	0	-0	0.019214	-0	0	0	0
1.432	1.438517	73.03173099999999	-6.489177	1.859665	0	-0.601728	0	0	0	0	0	0	0	-0.284279	0	0	0	0
1.433	1.529531	83.960892	-7.681681	0.8914069999999999	0	-0.22707	0	0	0	0	0	0	0	-0.578379	0	0	0	0
1.434	1.580439	96.362503	-9.004295000000001	0.995345	0	-0.267624	0	0	0	0	0	0	0	-0.856154	0	0	0	0
1.435	1.589865	110.37973	-10.454837	1.024568	0	-0.27922	0	0	0	0	0	0	0	-1.110949	0	0	0	0
1.436	1.555587	126.157722	-12.028231	1.038039	0	-0.284698	0	0	0	0	0	0	0	-1.336479	0	0	0	0
1.437	1.474082	143.841034	-13.716009	1.045626	0	-0.287879	0	0	0	0	0	0	0	-1.52692	0	0	0	0
1.438	1.340026	163.570679	-15.505776	1.050392	0	-0.289952	0	0	0	0	0	0	0	-1.676983	0	0	0	0
1.439	1.145781	185.480774	-17.380671	1.053597	0	-0.291407	0	0	0	0	0	0	0	-1.781981	0	0	0	0
1.44	0.880887	209.694778	-19.318827	1.055854	0	-0.292483	0	0	0	0	0	0	0	-1.837886	0	0	0	0
1.441	0.531594	236.321396	-21.292881	1.057495	0	-0.293309	0	0	0	0	0	0	0	-1.841373	0	0	0	0
1.442	0.08047	265.450165	-23.26952	1.058716	0	-0.293962	0	0	0	0	0	0	0	-1.789854	0	0	0	0
1.443	-0.493883	297.147034	-25.209141	1.059639	0	-0.294491	0	0	0	0	0	0	0	-1.681502	0	0	0	0
1.444	-1.216968	331.449585	-27.065605	1.060345	0	-0.294928	0	0	0	0	0	0	0	-1.515267	0	0	0	0
1.445	-2.118364	368.36264	-28.786179	1.060886	0	-0.295294	0	0	0	0	0	0	0	-1.290874	0	0	0	0
1.446	-3.231497	407.854004	-30.311644	1.061303	0	-0.295606	0	0	0	0	0	0	0	-1.008825	0	0	0	0
1.447	-4.593191	449.850555	-31.576656	1.06162	0	-0.295875	0	0	0	0	0	0	0	-0.670377	0	0	0	0
1.448	-6.243012	494.235046	-32.510353	1.06186	0	-0.296108	0	0	0	0	0	0	0	-0.277522	0	0	0	0
1.449	-8.222383000000001	540.843689	-33.037258	1.062036	0	-0.296314	0	0	0	0	0	0	-0	0.167048	-0	0	0	0
1.45	-10.573517	589.464783	-33.078491	1.06216	0	-0.296496	0	0	0	0	0	0	-0	0.659977	-0	0	0	0
1.451	-13.338167	639.8386839999999	-32.553303	1.06224	0	-0.296659	0	0	0	0	0	0	-0	1.197294	-0	0	0	0
1.452	-16.556267	691.658691	-31.380915	1.062282	0	-0.296805	0	0	0	0	0	0	-0	1.774463	-0	0	0	0
1.453	-20.264479	744.573975	-29.482672	1.062292	0	-0.296938	0	0	0	0	0	0	-0	2.386446	-0	0	0	0
1.454	-24.49474	798.193848	-26.784456	1.062273	0	-0.297059	0	0	0	0	0	0	-0	3.027762	-0	0	0	0
1.455	-29.272837	852.093201	-23.219301	1.062227	0	-0.29717	0	0	0	0	0	0	-0	3.692554	-0	0	0	0
1.456	-34.617104	905.820251	-18.730167	1.062157	0	-0.297272	0	0	0	0	0	0	-0	4.374664	-0	0	0	0
1.457	-40.537262	958.904846	-13.272757	1.062063	0	-0.297367	0	0	0	0	0	0	-0	5.067702	-0	0	0	0
1.458	-47.033527	1010.868591	-6.8183	1.061947	0	-0.297455	0	0	0	0	0	0	-0	5.765122	-0	0	0	0
1.459	-54.095936	1061.235229	0.643831	1.061808	0	-0.297538	0	0	0	0	0	0	-0	6.460301	-0	0	0	0
1.46	-61.704025	1109.542236	9.103775000000001	1.061647	0	-0.297616	0	0	0	0	0	0	-0	7.146609	-0	0	0	0
1.461	-69.826836	1155.352051	18.529232	1.061462	0	-0.29769	0	0	0	0	0	0	-0	7.817492	-0	0	0	0
1.462	-78.423271	1198.262695	28.864027	1.061252	0	-0.297759	0	0	0	0	0	0	-0	8.466543	-0	0	0	0
1.463	-87.44278	1237.919067	40.027271	1.061015	0	-0.297825	0	0	0	0	0	0	-0	9.087573000000001	-0	0	0	0
1.464	-96.82646200000001	1274.021118	51.913242	1.06075	0	-0.297888	0	0	0	0	0	0	-0	9.674682000000001	-0	0	0	0
1.465	-106.508347	1306.331665	64.391975	1.060454	0	-0.297947	0	0	0	0	0	0	-0	10.222325	-0	0	0	0
1.466	-116.417053	1334.682495	77.310669	1.060125	0	-0.298004	0	0	0	0	0	0	-0	10.725375	-0	0	0	0
1.467	-126.477562	1358.977051	90.49586499999999	1.059758	0	-0.298057	0	0	0	0	0	0	-0	11.179174	-0	0	0	0
1.468	-136.613144	1379.192261	103.75634	1.059351	0	-0.298108	0	0	0	0	0	0	-0	11.579593	-0	0	0	0
1.469	-146.747299	1395.376953	116.886719	1.058899	0	-0.298155	0	0	0	0	0	0	-0	11.923064	-0	0	0	0
1.47	-156.805618	1407.649048	129.671677	1.058397	0	-0.298199	0	0	0	0	0	0	-0	12.206633	-0	0	0	0
1.471	-166.717529	1416.189209	141.890518	1.057842	0	-0.298239	0	0	0	0	0	0	-0	12.427977	-0	0	0	0
1.472	-176.417786	1421.234741	153.322266	1.057227	0	-0.298276	0	0	0	0	0	0	-0	12.585436	-0	0	0	0
1.473	-185.847595	1423.07019	163.750748	1.056547	0	-0.298308	0	0	0	0	0	0	-0	12.678025	-0	0	0	0
1.474	-194.955429	1422.018311	172.969833	1.055796	0	-0.298335	0	0	0	0	0	0	-0	12.705443	-0	0	0	0
1.475	-203.697388	1418.42981	180.788528	1.054966	0	-0.298357	0	0	0	0	0	0	-0	12.668068	-0	0	0	0
1.476	-212.037201	1412.673462	187.035782	1.054051	0	-0.298372	0	0	0	0	0	0	-0	12.566954	-0	0	0	0
1.477	-219.945801	1405.126221	191.564926	1.053044	0	-0.298381	0	0	0	0	0	0	-0	12.403808	-0	0	0	0
1.478	-227.400574	1396.164307	194.257553	1.051938	0	-0.298382	0	0	0	0	0	0	-0	12.180968	-0	0	0	0
1.479	-234.384445	1386.155029	195.026779	1.050724	0	-0.298374	0	0	0	0	0	0	-0	11.901371	-0	0	0	0
1.48	-240.88472	1375.449585	193.819855	1.049395	0	-0.298356	0	0	0	0	0	0	-0	11.568509	-0	0	0	0
1.481	-246.891937	1364.378052	190.619888	1.047944	0	-0.298328	0	0	0	0	0	0	-0	11.186386	-0	0	0	0
1.482	-252.398849	1353.244263	185.446808	1.046363	0	-0.298288	0	0	0	0	0	0	-0	10.759465	-0	0	0	0
1.483	-257.399536	1342.323486	178.357529	1.044644	0	-0.298234	0	0	0	0	0	0	-0	10.292605	-0	0	0	0
1.484	-261.888672	1331.859863	169.445129	1.042781	0	-0.298167	0	0	0	0	0	0	-0	9.791005	-0	0	0	0
1.485	-265.86142	1322.06604	158.837296	1.040768	0	-0.298084	0	0	0	0	0	0	-0	9.260132	-0	0	0	0
1.486	-269.313232	1313.123169	146.693939	1.038599	0	-0.297985	0	0	0	0	0	0	-0	8.705651	-0	0	0	0
1.487	-272.240295	1305.181396	133.203964	1.03627	0	-0.297868	0	0	0	0	0	0	-0	8.13336	-0	0	0	0
1.488	-274.640167	1298.36145	118.581497	1.033778	0	-0.297732	0	0	0	0	0	0	-0	7.549108	-0	0	0	0
1.489	-276.512543	1292.756104	103.061363	1.03112	0	-0.297576	0	0	0	0	0	0	-0	6.958731	-0	0	0	0
1.49	-277.860168	1288.432129	86.89413500000001	1.028296	0	-0.297399	0	0	0	0	0	0	-0	6.367977	-0	0	0	0
1.491	-278.689819	1285.432251	70.340813	1.025307	0	-0.2972	0	0	0	0	0	0	-0	5.782436	-0	0	0	0
1.492	-279.013092	1283.777222	53.667202	1.022154	0	-0.296979	0	0	0	0	0	0	-0	5.207477	-0	0	0	0
1.493	-278.846985	1283.467407	37.138245	1.018844	0	-0.296735	0	0	0	0	0	0	-0	4.648181	-0	0	0	0
1.494	-278.214325	1284.485229	21.012329	1.015381	0	-0.296468	0	0	0	0	0	0	-0	4.109293	-0	0	0	0
1.495	-277.143646	1286.796509	5.535854	1.011773	0	-0.296179	0	0	0	0	0	0	-0	3.595159	-0	0	0	0
1.496	-275.668793	1290.351929	-9.061923999999999	1.008031	0	-0.295866	0	0	0	0	0	0	-0	3.109692	-0	0	0	0
1.497	-273.828308	1295.089111	-22.573565	1.004165	0	-0.295532	0	0	0	0	0	0	-0	2.656325	-0	0	0	0
1.498	-271.664001	1300.933838	-34.817532	1.000189	0	-0.295177	0	0	0	0	0	0	-0	2.237986	-0	0	0	0
1.499	-269.219818	1307.801636	-45.641621	0.996117	0	-0.294802	0	0	0	0	0	0	-0	1.857072	-0	0	0	0
1.5	-266.540039	1315.599365	-54.925625	0.991963	0	-0.294409	0	0	0	0	0	0	-0	1.515434	-0	0	0	0
1.501	-263.667633	1324.226685	-62.583225	0.987743	0	-0.293999	0	0	0	0	0	0	-0	1.214371	-0	0	0	0
1.502	-260.642517	1333.577881	-68.563042	0.983474	0	-0.293575	0	0	0	0	0	0	-0	0.9546289999999999	-0	0	0	0
1.503	-257.500061	1343.543457	-72.8489	0.979173	0	-0.293138	0	0	0	0	0	0	-0	0.736408	-0	0	0	0
1.504	-254.269623	1354.011597	-75.45925099999999	0.974855	0	-0.292691	0	0	0	0	0	0	-0	0.559383	-0	0	0	0
1.505	-250.973724	1364.870239	-76.445915	0.970536	0	-0.292237	0	0	0	0	0	0	-0	0.422719	-0	0	0	0
1.506	-247.627396	1376.008179	-75.892036	0.966232	0	-0.291778	0	0	0	0	0	0	-0	0.325105	-0	0	0	0
1.507	-244.238113	1387.316772	-73.909515	0.961957	0	-0.291316	0	0	0	0	0	0	-0	0.264785	-0	0	0	0
1.508	-240.806152	1398.691528	-70.63578	0.957724	0	-0.290854	0	0	0	0	0	0	-0	0.239603	-0	0	0	0
1.509	-237.325439	1410.032959	-66.230186	0.9535439999999999	0	-0.290394	0	0	0	0	0	0	-0	0.247038	-0	0	0	0
1.51	-233.784714	1421.247437	-60.869987	0.949429	0	-0.289939	0	0	0	0	0	0	-0	0.284261	-0	0	0	0
1.511	-230.169113	1432.248291	-54.746002	0.9453859999999999	0	-0.28949	0	0	0	0	0	0	-0	0.34818	-0	0	0	0
